# xmcd CD database file
#
# Track frame offsets:
#	150
#	21775
#	41172
#	62797
#
# Disc length: 1092 seconds
#
# Revision: 0
# Processed by: cddbd v1.5.1PL2 Copyright (c) Steve Scherf et al.
# Submitted via: CDex 1.50beta8
#
DISCID=30044204
DTITLE=m.o.v.e - DISCO TIME
DYEAR=2005
DGENRE=J-Pop
TTITLE0=DISCO TIME
TTITLE1=This is my heartache
TTITLE2=DISCO TIME (Instrumental)
TTITLE3=This is my heartache (Instrumental)
EXTD=YEAR: 2005
EXTT0=
EXTT1=
EXTT2=
EXTT3=
PLAYORDER=
